# Blender v2.78 (sub 0) OBJ File: 'Building2.blend'
# www.blender.org
mtllib Building2.mtl
o Cube
v 1.100000 0.696383 1.100000
v 1.099999 0.789363 1.100001
v 1.100000 0.696383 0.289979
v 1.100000 0.789363 0.289979
v 0.269618 0.696383 1.100000
v 0.269617 0.789363 1.100000
v 0.333333 0.789363 0.333334
v 0.333333 0.696383 0.333333
v 1.600000 0.696383 0.289979
v 1.600000 0.696383 1.100000
v 1.599999 0.789363 1.100001
v 1.600000 0.789363 0.289979
v 1.100000 0.696383 1.600000
v 1.099999 0.789363 1.600001
v 0.269618 0.696383 1.600000
v 0.269617 0.789363 1.600000
v 1.600000 0.696383 1.600000
v 1.599999 0.789363 1.600001
v 1.000000 0.726292 0.333333
v 0.333333 0.726292 1.000000
v 1.000484 0.726292 1.500484
v 0.333333 0.726292 1.500000
v 1.000000 -0.037818 0.333333
v 0.333333 -0.037818 1.000000
v 1.000484 -0.037818 1.500484
v 0.333333 -0.037818 1.500000
v 0.436031 0.623595 1.500075
v 0.436031 0.064880 1.500075
v 0.897787 0.064880 1.500410
v 0.897787 0.623595 1.500410
v 1.500000 0.726292 0.333333
v 1.500000 -0.037818 0.333333
v 1.499515 -0.037818 1.000484
v 1.499590 0.623595 0.897787
v 1.499590 0.064880 0.897787
v 1.499925 0.064880 0.436031
v 1.499925 0.623595 0.436031
v 1.499515 0.726292 1.000484
v 1.088551 0.623595 1.412546
v 1.088551 0.064880 1.412546
v 1.415299 0.064880 1.086273
v 1.415299 0.623595 1.086273
v -1.100000 0.696383 1.100000
v -1.099999 0.789363 1.100001
v -1.100000 0.696383 0.289979
v -1.100000 0.789363 0.289979
v -0.269618 0.696383 1.100000
v -0.269617 0.789363 1.100000
v -0.333333 0.789363 0.333334
v -0.333333 0.696383 0.333333
v -1.600000 0.696383 0.289979
v -1.600000 0.696383 1.100000
v -1.599999 0.789363 1.100001
v -1.600000 0.789363 0.289979
v -1.100000 0.696383 1.600000
v -1.099999 0.789363 1.600001
v -0.269618 0.696383 1.600000
v -0.269617 0.789363 1.600000
v -1.600000 0.696383 1.600000
v -1.599999 0.789363 1.600001
v -1.000000 0.726292 0.333333
v -0.333333 0.726292 1.000000
v -1.000484 0.726292 1.500484
v -0.333333 0.726292 1.500000
v -1.000000 -0.037818 0.333333
v -0.333333 -0.037818 1.000000
v -1.000484 -0.037818 1.500484
v -0.333333 -0.037818 1.500000
v 0.000000 0.726292 1.000000
v 0.000000 -0.037818 1.000000
v 0.000000 0.696383 1.100000
v 0.000000 0.789363 1.100000
v 0.000000 0.789363 0.333333
v 0.000000 0.696383 0.333333
v -0.436031 0.623595 1.500075
v -0.436031 0.064880 1.500075
v -0.897787 0.064880 1.500410
v -0.897787 0.623595 1.500410
v -1.500000 0.726292 0.333333
v -1.500000 -0.037818 0.333333
v -1.499515 -0.037818 1.000484
v -1.499590 0.623595 0.897787
v -1.499590 0.064880 0.897787
v -1.499925 0.064880 0.436031
v -1.499925 0.623595 0.436031
v -1.499515 0.726292 1.000484
v -1.088551 0.623595 1.412546
v -1.088551 0.064880 1.412546
v -1.415299 0.064880 1.086273
v -1.415299 0.623595 1.086273
v 1.100000 0.696383 -1.100000
v 1.099999 0.789363 -1.100001
v 1.100000 0.696383 -0.289979
v 1.100000 0.789363 -0.289979
v 0.269618 0.696383 -1.100000
v 0.269617 0.789363 -1.100000
v 0.333333 0.789363 -0.333334
v 0.333333 0.696383 -0.333333
v 1.600000 0.696383 -0.289979
v 1.600000 0.696383 -1.100000
v 1.599999 0.789363 -1.100001
v 1.600000 0.789363 -0.289979
v 1.100000 0.696383 -1.600000
v 1.099999 0.789363 -1.600001
v 0.269618 0.696383 -1.600000
v 0.269617 0.789363 -1.600000
v 1.600000 0.696383 -1.600000
v 1.599999 0.789363 -1.600001
v 1.000000 0.726292 -0.333333
v 0.333333 0.726292 -1.000000
v 1.000484 0.726292 -1.500484
v 0.333333 0.726292 -1.500000
v 1.000000 -0.037818 -0.333333
v 0.333333 -0.037818 -1.000000
v 1.000484 -0.037818 -1.500484
v 0.333333 -0.037818 -1.500000
v 1.000000 0.726292 0.000000
v 1.000000 -0.037818 0.000000
v 1.100000 0.696383 0.000000
v 1.100000 0.789363 0.000000
v 0.333333 0.696383 0.000000
v 0.333333 0.789363 0.000000
v 0.436031 0.623595 -1.500075
v 0.436031 0.064880 -1.500075
v 0.897787 0.064880 -1.500410
v 0.897787 0.623595 -1.500410
v 1.500000 0.726292 -0.333333
v 1.500000 -0.037818 -0.333333
v 1.499515 -0.037818 -1.000484
v 1.499590 0.623595 -0.897787
v 1.499590 0.064880 -0.897787
v 1.499925 0.064880 -0.436031
v 1.499925 0.623595 -0.436031
v 1.499515 0.726292 -1.000484
v 1.088551 0.623595 -1.412546
v 1.088551 0.064880 -1.412546
v 1.415299 0.064880 -1.086273
v 1.415299 0.623595 -1.086273
v -1.100000 0.696383 -1.100000
v -1.099999 0.789363 -1.100001
v -1.100000 0.696383 -0.289979
v -1.100000 0.789363 -0.289979
v -0.269618 0.696383 -1.100000
v -0.269617 0.789363 -1.100000
v -0.333333 0.789363 -0.333334
v -0.333333 0.696383 -0.333333
v -1.600000 0.696383 -0.289979
v -1.600000 0.696383 -1.100000
v -1.599999 0.789363 -1.100001
v -1.600000 0.789363 -0.289979
v -1.100000 0.696383 -1.600000
v -1.099999 0.789363 -1.600001
v -0.269618 0.696383 -1.600000
v -0.269617 0.789363 -1.600000
v -1.600000 0.696383 -1.600000
v -1.599999 0.789363 -1.600001
v -1.000000 0.726292 -0.333333
v -0.333333 0.726292 -1.000000
v -1.000484 0.726292 -1.500484
v -0.333333 0.726292 -1.500000
v -1.000000 -0.037818 -0.333333
v -0.333333 -0.037818 -1.000000
v -1.000484 -0.037818 -1.500484
v -0.333333 -0.037818 -1.500000
v -1.000000 0.726292 0.000000
v -1.000000 -0.037818 0.000000
v 0.000000 0.726292 -1.000000
v 0.000000 -0.037818 -1.000000
v 0.000000 0.696383 -1.100000
v 0.000000 0.789363 -1.100000
v 0.000000 0.789363 -0.333333
v 0.000000 0.696383 -0.333333
v -1.100000 0.696383 0.000000
v -1.100000 0.789363 0.000000
v -0.333333 0.696383 0.000000
v -0.333333 0.789363 0.000000
v 0.000000 0.789363 0.000000
v 0.000000 0.696383 0.000000
v -0.436031 0.623595 -1.500075
v -0.436031 0.064880 -1.500075
v -0.897787 0.064880 -1.500410
v -0.897787 0.623595 -1.500410
v -1.500000 0.726292 -0.333333
v -1.500000 -0.037818 -0.333333
v -1.499515 -0.037818 -1.000484
v -1.499590 0.623595 -0.897787
v -1.499590 0.064880 -0.897787
v -1.499925 0.064880 -0.436031
v -1.499925 0.623595 -0.436031
v -1.499515 0.726292 -1.000484
v -1.088551 0.623595 -1.412546
v -1.088551 0.064880 -1.412546
v -1.415299 0.064880 -1.086273
v -1.415299 0.623595 -1.086273
vt 0.4467 0.1961
vt 0.3391 0.1841
vt 0.3690 0.0815
vt 0.4392 0.1148
vt 0.3226 0.4380
vt 0.3020 0.4283
vt 0.3396 0.3498
vt 0.3575 0.3643
vt 0.9815 0.6511
vt 0.9236 0.6511
vt 0.9236 0.5353
vt 0.9815 0.5353
vt 0.1557 0.3956
vt 0.1630 0.3276
vt 0.1662 0.1484
vt 0.8078 0.6511
vt 0.8078 0.5353
vt 0.4440 0.3042
vt 0.4311 0.2948
vt 0.4648 0.1971
vt 0.9236 0.7379
vt 0.8078 0.7379
vt 0.7210 0.7379
vt 0.7210 0.6511
vt 0.3760 0.0632
vt 0.2509 0.0531
vt 0.2442 0.0326
vt 0.4540 0.1058
vt 0.7210 0.5353
vt 0.1519 0.1261
vt 0.1298 0.9207
vt 0.1298 0.5271
vt 0.4550 0.5271
vt 0.4550 0.9207
vt 0.5353 0.4298
vt 0.5353 0.0227
vt 0.7128 0.0227
vt 0.7128 0.4298
vt 0.9792 0.0227
vt 0.9792 0.4298
vt 0.7259 0.9918
vt 0.7259 0.7519
vt 0.8828 0.7519
vt 0.8828 0.9918
vt 0.9874 0.7519
vt 0.9874 0.9918
vt 0.8078 0.4774
vt 0.9236 0.4774
vt 0.0939 0.3260
vt 0.0793 0.1740
vt 0.0730 0.1552
vt 0.0905 0.3911
vt 0.9815 0.4774
vt 0.0574 0.9930
vt 0.0574 0.4547
vt 0.5274 0.4547
vt 0.5274 0.9930
vt 0.1298 0.9207
vt 0.1298 0.5271
vt 0.4550 0.5271
vt 0.4550 0.9207
vt 0.0574 0.9930
vt 0.0574 0.4547
vt 0.5274 0.4547
vt 0.5274 0.9930
vt 0.1298 0.9207
vt 0.1298 0.5271
vt 0.4550 0.5271
vt 0.4550 0.9207
vt 0.0574 0.9930
vt 0.0574 0.4547
vt 0.5274 0.4547
vt 0.5274 0.9930
vt 0.4467 0.1961
vt 0.4392 0.1148
vt 0.3690 0.0815
vt 0.3391 0.1841
vt 0.3226 0.4380
vt 0.3575 0.3643
vt 0.3396 0.3498
vt 0.3020 0.4283
vt 0.9815 0.6511
vt 0.9815 0.5353
vt 0.9236 0.5353
vt 0.9236 0.6511
vt 0.1630 0.3276
vt 0.1557 0.3956
vt 0.1662 0.1484
vt 0.8078 0.5353
vt 0.8078 0.6511
vt 0.4440 0.3042
vt 0.4648 0.1971
vt 0.4311 0.2948
vt 0.8078 0.7379
vt 0.9236 0.7379
vt 0.7210 0.6511
vt 0.7210 0.7379
vt 0.3760 0.0632
vt 0.2442 0.0326
vt 0.2509 0.0531
vt 0.4540 0.1058
vt 0.7210 0.5353
vt 0.1519 0.1261
vt 0.1298 0.9207
vt 0.4550 0.9207
vt 0.4550 0.5271
vt 0.1298 0.5271
vt 0.7128 0.4298
vt 0.7128 0.0227
vt 0.9792 0.4298
vt 0.9792 0.0227
vt 0.7259 0.9918
vt 0.8828 0.9918
vt 0.8828 0.7519
vt 0.7259 0.7519
vt 0.9874 0.9918
vt 0.9874 0.7519
vt 0.0574 0.9930
vt 0.0574 0.4547
vt 0.5274 0.4547
vt 0.5274 0.9930
vt 0.1298 0.9207
vt 0.4550 0.9207
vt 0.4550 0.5271
vt 0.1298 0.5271
vt 0.0574 0.9930
vt 0.0574 0.4547
vt 0.5274 0.4547
vt 0.5274 0.9930
vt 0.1298 0.9207
vt 0.4550 0.9207
vt 0.4550 0.5271
vt 0.1298 0.5271
vt 0.0574 0.9930
vt 0.0574 0.4547
vt 0.5274 0.4547
vt 0.5274 0.9930
vt 0.4467 0.1961
vt 0.4392 0.1148
vt 0.3690 0.0815
vt 0.3391 0.1841
vt 0.3575 0.3643
vt 0.3396 0.3498
vt 0.9236 0.5353
vt 0.9236 0.6511
vt 0.1630 0.3276
vt 0.1662 0.1484
vt 0.8078 0.5353
vt 0.8078 0.6511
vt 0.4440 0.3042
vt 0.4648 0.1971
vt 0.4311 0.2948
vt 0.8078 0.7379
vt 0.9236 0.7379
vt 0.7210 0.6511
vt 0.7210 0.7379
vt 0.3760 0.0632
vt 0.2442 0.0326
vt 0.2509 0.0531
vt 0.4540 0.1058
vt 0.7210 0.5353
vt 0.1519 0.1261
vt 0.1298 0.9207
vt 0.4550 0.9207
vt 0.4550 0.5271
vt 0.1298 0.5271
vt 0.5353 0.4298
vt 0.7128 0.4298
vt 0.7128 0.0227
vt 0.5353 0.0227
vt 0.9792 0.4298
vt 0.9792 0.0227
vt 0.7259 0.9918
vt 0.8828 0.9918
vt 0.8828 0.7519
vt 0.7259 0.7519
vt 0.9236 0.4774
vt 0.8078 0.4774
vt 0.0793 0.1740
vt 0.0939 0.3260
vt 0.0730 0.1552
vt 0.0574 0.9930
vt 0.0574 0.4547
vt 0.5274 0.4547
vt 0.5274 0.9930
vt 0.1298 0.9207
vt 0.4550 0.9207
vt 0.4550 0.5271
vt 0.1298 0.5271
vt 0.0574 0.9930
vt 0.0574 0.4547
vt 0.5274 0.4547
vt 0.5274 0.9930
vt 0.1298 0.9207
vt 0.4550 0.9207
vt 0.4550 0.5271
vt 0.1298 0.5271
vt 0.0574 0.9930
vt 0.0574 0.4547
vt 0.5274 0.4547
vt 0.5274 0.9930
vt 0.4467 0.1961
vt 0.3391 0.1841
vt 0.3690 0.0815
vt 0.4392 0.1148
vt 0.3396 0.3498
vt 0.3575 0.3643
vt 0.9236 0.6511
vt 0.9236 0.5353
vt 0.1630 0.3276
vt 0.1662 0.1484
vt 0.8078 0.6511
vt 0.8078 0.5353
vt 0.4440 0.3042
vt 0.4311 0.2948
vt 0.4648 0.1971
vt 0.9236 0.7379
vt 0.8078 0.7379
vt 0.7210 0.7379
vt 0.7210 0.6511
vt 0.3760 0.0632
vt 0.2509 0.0531
vt 0.2442 0.0326
vt 0.4540 0.1058
vt 0.7210 0.5353
vt 0.1519 0.1261
vt 0.1298 0.9207
vt 0.1298 0.5271
vt 0.4550 0.5271
vt 0.4550 0.9207
vt 0.7128 0.0227
vt 0.7128 0.4298
vt 0.9792 0.0227
vt 0.9792 0.4298
vt 0.7259 0.9918
vt 0.7259 0.7519
vt 0.8828 0.7519
vt 0.8828 0.9918
vt 0.0574 0.9930
vt 0.0574 0.4547
vt 0.5274 0.4547
vt 0.5274 0.9930
vt 0.1298 0.9207
vt 0.1298 0.5271
vt 0.4550 0.5271
vt 0.4550 0.9207
vt 0.0574 0.9930
vt 0.0574 0.4547
vt 0.5274 0.4547
vt 0.5274 0.9930
vt 0.1298 0.9207
vt 0.1298 0.5271
vt 0.4550 0.5271
vt 0.4550 0.9207
vt 0.0574 0.9930
vt 0.0574 0.4547
vt 0.5274 0.4547
vt 0.5274 0.9930
vn 0.0000 1.0000 0.0000
vn 1.0000 -0.0000 0.0000
vn 0.0000 -1.0000 0.0000
vn 0.0000 0.0000 -1.0000
vn -0.0000 -0.0000 1.0000
vn -1.0000 -0.0000 0.0000
vn -0.0007 0.0000 1.0000
vn 1.0000 0.0000 0.0007
vn 0.7066 0.0000 0.7076
vn 0.7073 -0.0059 0.7069
vn 0.7136 0.0000 0.7005
vn 0.7073 0.0059 0.7069
vn 0.0007 0.0000 1.0000
vn -1.0000 0.0000 0.0007
vn -0.7066 0.0000 0.7076
vn -0.7073 -0.0059 0.7069
vn -0.7136 0.0000 0.7005
vn -0.7073 0.0059 0.7069
vn -0.0007 0.0000 -1.0000
vn 1.0000 0.0000 -0.0007
vn 0.7066 0.0000 -0.7076
vn 0.7073 -0.0059 -0.7069
vn 0.7136 0.0000 -0.7005
vn 0.7073 0.0059 -0.7069
vn 0.0007 0.0000 -1.0000
vn -1.0000 0.0000 -0.0007
vn -0.7066 0.0000 -0.7076
vn -0.7073 -0.0059 -0.7069
vn -0.7136 0.0000 -0.7005
vn -0.7073 0.0059 -0.7069
usemtl Building2
s off
f 11/1/1 2/2/1 14/3/1 18/4/1
f 119/5/2 120/6/2 4/7/2 3/8/2
f 119/9/3 3/10/3 8/11/3 121/12/3
f 120/6/1 122/13/1 7/14/1 4/7/1
f 4/7/1 7/14/1 6/15/1 2/2/1
f 3/10/3 1/16/3 5/17/3 8/11/3
f 9/18/2 12/19/2 11/1/2 10/20/2
f 1/16/3 3/10/3 9/21/3 10/22/3
f 4/7/1 2/2/1 11/1/1 12/19/1
f 3/8/4 4/7/4 12/19/4 9/18/4
f 1/16/3 10/22/3 17/23/3 13/24/3
f 13/25/5 14/3/5 16/26/5 15/27/5
f 14/3/5 13/25/5 17/28/5 18/4/5
f 5/17/3 1/16/3 13/24/3 15/29/3
f 6/15/6 5/30/6 15/27/6 16/26/6
f 10/20/2 11/1/2 18/4/2 17/28/2
f 2/2/1 6/15/1 16/26/1 14/3/1
f 27/31/7 28/32/7 29/33/7 30/34/7
f 69/35/5 70/36/5 24/37/5 20/38/5
f 20/38/6 24/37/6 26/39/6 22/40/6
f 31/41/4 32/42/4 23/43/4 19/44/4
f 19/44/2 23/43/2 118/45/2 117/46/2
f 8/11/3 5/17/3 71/47/3 74/48/3
f 7/14/1 73/49/1 72/50/1 6/15/1
f 5/30/5 6/15/5 72/50/5 71/51/5
f 122/13/1 177/52/1 73/49/1 7/14/1
f 121/12/3 8/11/3 74/48/3 178/53/3
f 22/54/7 26/55/7 28/32/7 27/31/7
f 26/55/7 25/56/7 29/33/7 28/32/7
f 25/56/7 21/57/7 30/34/7 29/33/7
f 21/57/7 22/54/7 27/31/7 30/34/7
f 34/58/8 35/59/8 36/60/8 37/61/8
f 38/62/8 33/63/8 35/59/8 34/58/8
f 33/63/8 32/64/8 36/60/8 35/59/8
f 32/64/8 31/65/8 37/61/8 36/60/8
f 31/65/8 38/62/8 34/58/8 37/61/8
f 39/66/9 40/67/9 41/68/9 42/69/9
f 21/70/9 25/71/9 40/67/9 39/66/9
f 25/71/10 33/72/10 41/68/10 40/67/10
f 33/72/11 38/73/11 42/69/11 41/68/11
f 38/73/12 21/70/12 39/66/12 42/69/12
f 53/74/1 60/75/1 56/76/1 44/77/1
f 173/78/6 45/79/6 46/80/6 174/81/6
f 173/82/3 175/83/3 50/84/3 45/85/3
f 174/81/1 46/80/1 49/86/1 176/87/1
f 46/80/1 44/77/1 48/88/1 49/86/1
f 45/85/3 50/84/3 47/89/3 43/90/3
f 51/91/6 52/92/6 53/74/6 54/93/6
f 43/90/3 52/94/3 51/95/3 45/85/3
f 46/80/1 54/93/1 53/74/1 44/77/1
f 45/79/4 51/91/4 54/93/4 46/80/4
f 43/90/3 55/96/3 59/97/3 52/94/3
f 55/98/5 57/99/5 58/100/5 56/76/5
f 56/76/5 60/75/5 59/101/5 55/98/5
f 47/89/3 57/102/3 55/96/3 43/90/3
f 48/88/2 58/100/2 57/99/2 47/103/2
f 52/92/6 59/101/6 60/75/6 53/74/6
f 44/77/1 56/76/1 58/100/1 48/88/1
f 75/104/13 78/105/13 77/106/13 76/107/13
f 69/35/5 62/108/5 66/109/5 70/36/5
f 62/108/2 64/110/2 68/111/2 66/109/2
f 79/112/4 61/113/4 65/114/4 80/115/4
f 61/113/6 165/116/6 166/117/6 65/114/6
f 50/84/3 74/48/3 71/47/3 47/89/3
f 49/86/1 48/88/1 72/50/1 73/49/1
f 47/103/5 71/51/5 72/50/5 48/88/5
f 176/87/1 49/86/1 73/49/1 177/52/1
f 175/83/3 178/53/3 74/48/3 50/84/3
f 64/118/13 75/104/13 76/107/13 68/119/13
f 68/119/13 76/107/13 77/106/13 67/120/13
f 67/120/13 77/106/13 78/105/13 63/121/13
f 63/121/13 78/105/13 75/104/13 64/118/13
f 82/122/14 85/123/14 84/124/14 83/125/14
f 86/126/14 82/122/14 83/125/14 81/127/14
f 81/127/14 83/125/14 84/124/14 80/128/14
f 80/128/14 84/124/14 85/123/14 79/129/14
f 79/129/14 85/123/14 82/122/14 86/126/14
f 87/130/15 90/131/15 89/132/15 88/133/15
f 63/134/15 87/130/15 88/133/15 67/135/15
f 67/135/16 88/133/16 89/132/16 81/136/16
f 81/136/17 89/132/17 90/131/17 86/137/17
f 86/137/18 90/131/18 87/130/18 63/134/18
f 101/138/1 108/139/1 104/140/1 92/141/1
f 119/5/2 93/142/2 94/143/2 120/6/2
f 119/9/3 121/12/3 98/144/3 93/145/3
f 120/6/1 94/143/1 97/146/1 122/13/1
f 94/143/1 92/141/1 96/147/1 97/146/1
f 93/145/3 98/144/3 95/148/3 91/149/3
f 99/150/2 100/151/2 101/138/2 102/152/2
f 91/149/3 100/153/3 99/154/3 93/145/3
f 94/143/1 102/152/1 101/138/1 92/141/1
f 93/142/5 99/150/5 102/152/5 94/143/5
f 91/149/3 103/155/3 107/156/3 100/153/3
f 103/157/4 105/158/4 106/159/4 104/140/4
f 104/140/4 108/139/4 107/160/4 103/157/4
f 95/148/3 105/161/3 103/155/3 91/149/3
f 96/147/6 106/159/6 105/158/6 95/162/6
f 100/151/2 107/160/2 108/139/2 101/138/2
f 92/141/1 104/140/1 106/159/1 96/147/1
f 123/163/19 126/164/19 125/165/19 124/166/19
f 167/167/4 110/168/4 114/169/4 168/170/4
f 110/168/6 112/171/6 116/172/6 114/169/6
f 127/173/5 109/174/5 113/175/5 128/176/5
f 109/174/2 117/46/2 118/45/2 113/175/2
f 98/144/3 172/177/3 169/178/3 95/148/3
f 97/146/1 96/147/1 170/179/1 171/180/1
f 95/162/4 169/181/4 170/179/4 96/147/4
f 122/13/1 97/146/1 171/180/1 177/52/1
f 121/12/3 178/53/3 172/177/3 98/144/3
f 112/182/19 123/163/19 124/166/19 116/183/19
f 116/183/19 124/166/19 125/165/19 115/184/19
f 115/184/19 125/165/19 126/164/19 111/185/19
f 111/185/19 126/164/19 123/163/19 112/182/19
f 130/186/20 133/187/20 132/188/20 131/189/20
f 134/190/20 130/186/20 131/189/20 129/191/20
f 129/191/20 131/189/20 132/188/20 128/192/20
f 128/192/20 132/188/20 133/187/20 127/193/20
f 127/193/20 133/187/20 130/186/20 134/190/20
f 135/194/21 138/195/21 137/196/21 136/197/21
f 111/198/21 135/194/21 136/197/21 115/199/21
f 115/199/22 136/197/22 137/196/22 129/200/22
f 129/200/23 137/196/23 138/195/23 134/201/23
f 134/201/24 138/195/24 135/194/24 111/198/24
f 149/202/1 140/203/1 152/204/1 156/205/1
f 173/78/6 174/81/6 142/206/6 141/207/6
f 173/82/3 141/208/3 146/209/3 175/83/3
f 174/81/1 176/87/1 145/210/1 142/206/1
f 142/206/1 145/210/1 144/211/1 140/203/1
f 141/208/3 139/212/3 143/213/3 146/209/3
f 147/214/6 150/215/6 149/202/6 148/216/6
f 139/212/3 141/208/3 147/217/3 148/218/3
f 142/206/1 140/203/1 149/202/1 150/215/1
f 141/207/5 142/206/5 150/215/5 147/214/5
f 139/212/3 148/218/3 155/219/3 151/220/3
f 151/221/4 152/204/4 154/222/4 153/223/4
f 152/204/4 151/221/4 155/224/4 156/205/4
f 143/213/3 139/212/3 151/220/3 153/225/3
f 144/211/2 143/226/2 153/223/2 154/222/2
f 148/216/6 149/202/6 156/205/6 155/224/6
f 140/203/1 144/211/1 154/222/1 152/204/1
f 179/227/25 180/228/25 181/229/25 182/230/25
f 167/167/4 168/170/4 162/231/4 158/232/4
f 158/232/2 162/231/2 164/233/2 160/234/2
f 183/235/5 184/236/5 161/237/5 157/238/5
f 157/238/6 161/237/6 166/117/6 165/116/6
f 146/209/3 143/213/3 169/178/3 172/177/3
f 145/210/1 171/180/1 170/179/1 144/211/1
f 143/226/4 144/211/4 170/179/4 169/181/4
f 176/87/1 177/52/1 171/180/1 145/210/1
f 175/83/3 146/209/3 172/177/3 178/53/3
f 160/239/25 164/240/25 180/228/25 179/227/25
f 164/240/25 163/241/25 181/229/25 180/228/25
f 163/241/25 159/242/25 182/230/25 181/229/25
f 159/242/25 160/239/25 179/227/25 182/230/25
f 186/243/26 187/244/26 188/245/26 189/246/26
f 190/247/26 185/248/26 187/244/26 186/243/26
f 185/248/26 184/249/26 188/245/26 187/244/26
f 184/249/26 183/250/26 189/246/26 188/245/26
f 183/250/26 190/247/26 186/243/26 189/246/26
f 191/251/27 192/252/27 193/253/27 194/254/27
f 159/255/27 163/256/27 192/252/27 191/251/27
f 163/256/28 185/257/28 193/253/28 192/252/28
f 185/257/29 190/258/29 194/254/29 193/253/29
f 190/258/30 159/255/30 191/251/30 194/254/30
