# Blender v2.77 (sub 0) OBJ File: ''
# www.blender.org
mtllib Zombie_Arm&Leg.mtl
o upper_body.002_Cube.003
v -0.456970 1.514266 0.032559
v 0.189823 1.123063 0.141987
v 0.163670 0.619457 0.058730
v 0.180806 0.557371 0.053528
v 0.089777 0.556186 -0.150607
v 0.170580 0.380691 0.015373
v 0.103809 0.380449 -0.121831
v 0.024988 0.962259 -0.046962
v 0.172504 0.619348 -0.029769
v 0.041483 0.619139 -0.046638
v 0.036978 0.555710 -0.074068
v 0.208732 0.556991 -0.054895
v 0.059641 0.380194 -0.077058
v 0.184383 0.380690 -0.058907
v 0.018112 1.070142 0.007412
v 0.087263 0.619253 0.073801
v 0.089512 0.619253 -0.085393
v 0.093702 1.072287 0.171738
v 0.089161 0.556440 0.085563
v 0.099754 0.380449 0.038932
v 0.037578 0.884543 -0.025258
v 0.103235 0.929219 0.171042
v 0.225191 0.965943 -0.002567
v 0.208680 0.954341 0.132988
v 0.117949 0.932189 -0.095745
v 0.195618 0.028629 -0.006888
v 0.188110 0.028629 -0.067700
v 0.069606 0.028629 -0.079460
v 0.111419 0.028629 0.009561
v 0.069606 0.039458 0.267445
v 0.210572 0.060938 0.287661
v 0.111419 0.082417 0.307876
v 0.069606 0.021048 0.267445
v 0.210572 0.021048 0.287661
v 0.111419 0.021048 0.307876
v 0.210572 0.024838 0.132665
v 0.069606 0.061659 0.132665
v 0.069606 0.024838 0.132665
v 0.111419 0.024838 0.132665
v 0.210572 0.083139 0.132665
v 0.111419 0.104618 0.132665
v 0.020268 0.827633 -0.025133
v 0.102463 0.827501 0.161453
v 0.211487 0.827550 -0.008289
v 0.199762 0.827510 0.116462
v 0.103914 0.827684 -0.086189
v 0.071070 0.187641 -0.074466
v 0.098971 0.187699 0.010013
v 0.165855 0.187748 -0.060634
v 0.154988 0.187739 -0.006347
v 0.112230 0.187699 -0.107026
v -0.494878 1.511522 0.044529
v -0.457102 1.514208 -0.004383
v -0.494942 1.507692 0.013978
v 0.015521 1.106323 0.029310
v 0.016576 1.103911 0.049560
v 0.022169 1.094156 0.054282
v 0.021635 1.094869 0.013743
v -0.444620 1.512503 0.016861
v 0.022956 1.089646 0.054410
v 0.023300 1.089190 0.012965
v 0.022445 1.087063 -0.023921
v 0.025507 1.087851 0.069248
v 0.043361 0.666107 -0.033034
v 0.091140 0.666172 0.084820
v 0.170298 0.666226 -0.018329
v 0.163384 0.666288 0.070675
v 0.092424 0.666172 -0.072559
v 0.026538 0.827541 0.077509
v 0.039185 0.556391 0.015475
v 0.065247 0.380262 -0.008912
v 0.019351 1.069519 0.045873
v 0.043319 0.619316 0.008869
v 0.030202 0.963454 0.086146
v 0.042355 0.884970 0.086285
v 0.069606 0.028629 -0.023746
v 0.080517 0.187641 -0.021148
v 0.047013 0.666208 0.021131
v 0.108884 0.028629 -0.084706
v 0.216877 1.136773 -0.024865
v 0.110373 1.074322 -0.171611
v -0.790441 1.332725 0.071350
v -0.879264 1.308010 0.089795
v -0.720272 1.378407 0.089073
v -0.768576 1.304388 0.081535
v -0.768284 1.307489 -0.015528
v -0.832517 1.260935 -0.015065
v -0.833263 1.262736 0.103512
v -0.701470 1.332628 -0.039623
v -0.699077 1.332845 0.097641
v -0.792619 1.338180 0.010280
v -0.739810 1.266113 0.035463
v -0.779728 1.196406 0.057796
v -0.880745 1.319487 0.012955
v -0.674948 1.272842 0.032677
v -0.721328 1.379420 0.000000
v -0.933148 1.188996 0.026301
v -0.963447 1.215902 0.091523
v -0.965589 1.219560 0.037418
v -0.897157 1.149148 0.068125
v -1.056201 1.138622 0.071149
v -1.032440 1.122213 0.099719
v -0.585889 1.466537 -0.049595
v -0.478711 1.442603 -0.139922
v -0.572139 1.457638 0.104028
v -0.331819 1.446669 -0.031422
v -0.624567 1.440036 -0.041869
v -0.565403 1.378999 -0.124213
v -0.618495 1.434936 0.111630
v -0.476138 1.350505 -0.006005
v -0.828639 1.325169 0.008007
v -0.797119 1.289532 -0.017231
v -0.826143 1.318453 0.074096
v -0.761414 1.244741 0.042624
v -0.557531 1.390798 0.108745
v -0.933659 1.191675 0.095230
v -0.479592 1.446643 0.097318
v -0.798238 1.287571 0.085201
v -1.055836 1.135199 0.102568
v -1.032436 1.121604 0.057656
v -1.008568 1.097816 0.079638
v -1.046884 1.108918 0.099030
v -1.070280 1.121904 0.101879
v -1.046880 1.108309 0.056967
v -1.070645 1.125327 0.070460
v -1.023011 1.084522 0.078949
v -1.110850 1.111273 0.057687
v -1.067961 1.081654 0.109257
v -1.110192 1.105095 0.114399
v -1.067954 1.080555 0.033332
v -1.024871 1.037619 0.073010
v -1.190802 1.009135 0.083793
v -1.147913 0.979517 0.135362
v -1.190144 1.002957 0.140505
v -1.147906 0.978418 0.059438
v -1.104823 0.935481 0.099116
vt 0.3622 0.3561
vt 0.3611 0.3976
vt 0.3175 0.4031
vt 0.3214 0.3534
vt 0.3589 0.2482
vt 0.3373 0.2478
vt 0.3405 0.2360
vt 0.3622 0.2379
vt 0.3585 0.3176
vt 0.3284 0.3139
vt 0.3326 0.2875
vt 0.3594 0.2864
vt 0.3456 0.2212
vt 0.3707 0.2221
vt 0.3527 0.1805
vt 0.3706 0.1816
vt 0.6615 0.2787
vt 0.6624 0.2948
vt 0.6502 0.2956
vt 0.6501 0.2810
vt 0.7165 0.2683
vt 0.7342 0.3002
vt 0.7041 0.2957
vt 0.7001 0.2701
vt 0.6336 0.2984
vt 0.6363 0.2842
vt 0.6040 0.3011
vt 0.6028 0.2877
vt 0.6607 0.2657
vt 0.6506 0.2687
vt 0.7062 0.2410
vt 0.6946 0.2469
vt 0.6373 0.2666
vt 0.6011 0.2737
vt 0.3408 0.1138
vt 0.3621 0.1193
vt 0.3345 0.1779
vt 0.3255 0.2181
vt 0.3210 0.2317
vt 0.3190 0.2437
vt 0.3112 0.2835
vt 0.3058 0.3041
vt 0.2947 0.3389
vt 0.5634 0.3187
vt 0.5636 0.3039
vt 0.6045 0.3218
vt 0.6403 0.3246
vt 0.6546 0.3178
vt 0.6648 0.3174
vt 0.6999 0.3274
vt 0.7273 0.3386
vt 0.7784 0.3108
vt 0.7640 0.3568
vt 0.2890 0.3966
vt 0.7965 0.3848
vt 0.8223 0.3465
vt 0.7309 0.2266
vt 0.7627 0.2596
vt 0.7425 0.2639
vt 0.7214 0.2339
vt 0.5300 0.3226
vt 0.5302 0.3056
vt 0.4256 0.5753
vt 0.4256 0.6000
vt 0.3869 0.6000
vt 0.3818 0.5753
vt 0.5608 0.2816
vt 0.5623 0.2929
vt 0.5290 0.2975
vt 0.5278 0.2861
vt 0.3374 0.0464
vt 0.3282 0.0383
vt 0.3529 0.0073
vt 0.3560 0.0118
vt 0.4032 0.0522
vt 0.3871 0.0568
vt 0.3859 0.0203
vt 0.3934 0.0145
vt 0.3790 0.1306
vt 0.4135 0.0888
vt 0.4235 0.1056
vt 0.3700 0.0158
vt 0.3706 0.0002
vt 0.4256 0.5648
vt 0.3919 0.5648
vt 0.3550 0.0574
vt 0.4563 0.5753
vt 0.4604 0.5963
vt 0.3226 0.4455
vt 0.3718 0.4292
vt 0.3796 0.4330
vt 0.3505 0.4698
vt 0.8807 0.4470
vt 0.8984 0.4846
vt 0.8783 0.4848
vt 0.8504 0.4501
vt 0.3290 0.5528
vt 0.3206 0.5225
vt 0.3456 0.5015
vt 0.3461 0.5491
vt 0.7937 0.2962
vt 0.8318 0.3358
vt 0.2781 0.3970
vt 0.2796 0.3421
vt 0.3022 0.2361
vt 0.3034 0.2255
vt 0.2878 0.2867
vt 0.2898 0.2731
vt 0.3081 0.2126
vt 0.3213 0.1740
vt 0.2800 0.3028
vt 0.3293 0.1192
vt 0.2904 0.0782
vt 0.4646 0.5648
vt 0.2734 0.3130
vt 0.4756 0.5944
vt 0.4798 0.5746
vt 0.4785 0.5648
vt 0.8206 0.4112
vt 0.8273 0.4248
vt 0.3707 0.4707
vt 0.3659 0.4894
vt 0.3709 0.5222
vt 0.4004 0.4809
vt 0.3995 0.4697
vt 0.4193 0.4693
vt 0.4185 0.4785
vt 0.4057 0.4995
vt 0.4176 0.4935
vt 0.4268 0.4784
vt 0.4283 0.4684
vt 0.4395 0.4675
vt 0.4365 0.4788
vt 0.4238 0.4936
vt 0.4344 0.4982
vt 0.8335 0.4863
vt 0.8263 0.4514
vt 0.3852 0.4379
vt 0.7865 0.4474
vt 0.7779 0.4726
vt 0.7629 0.4650
vt 0.7646 0.4452
vt 0.4027 0.4517
vt 0.4190 0.4553
vt 0.7551 0.4449
vt 0.7548 0.4668
vt 0.7424 0.4744
vt 0.7435 0.4457
vt 0.4266 0.4543
vt 0.4370 0.4533
vt 0.4628 0.4708
vt 0.4632 0.4592
vt 0.4886 0.4667
vt 0.4892 0.4734
vt 0.4609 0.4788
vt 0.4599 0.4919
vt 0.7093 0.4662
vt 0.7098 0.4477
vt 0.4868 0.4785
vt 0.4853 0.4867
vt 0.6765 0.4597
vt 0.6747 0.4486
vt 0.7626 0.4321
vt 0.7526 0.4309
vt 0.7063 0.4361
vt 0.6721 0.4401
vt 0.7396 0.4254
vt 0.8152 0.4270
vt 0.7841 0.4305
vt 0.4935 0.4735
vt 0.4910 0.4792
vt 0.4928 0.4665
vt 0.6689 0.4494
vt 0.6672 0.4404
vt 0.4893 0.4874
vt 0.6715 0.4604
vt 0.6615 0.4692
vt 0.6586 0.4516
vt 0.5028 0.4731
vt 0.5007 0.4626
vt 0.5263 0.4664
vt 0.5274 0.4782
vt 0.4984 0.4811
vt 0.6550 0.4379
vt 0.4949 0.4951
vt 0.6295 0.4750
vt 0.6155 0.4635
vt 0.6113 0.4521
vt 0.6248 0.4477
vt 0.6320 0.4587
vt 0.5236 0.4875
vt 0.5204 0.5013
vn 0.6456 0.7045 -0.2945
vn -0.1854 0.9805 -0.0654
vn -0.2217 0.9549 0.1974
vn 0.4676 0.6560 0.5925
vn 0.9073 -0.0449 -0.4180
vn 0.7313 -0.2781 0.6227
vn 0.7341 0.0610 0.6763
vn 0.8577 0.3697 -0.3573
vn 0.9567 -0.0641 -0.2839
vn 0.7891 -0.0333 0.6133
vn 0.7755 -0.2384 0.5846
vn 0.9097 -0.1520 -0.3864
vn 0.7511 0.0417 0.6588
vn 0.9184 0.2115 -0.3344
vn 0.7458 -0.1659 0.6452
vn 0.9351 -0.0985 -0.3403
vn -0.9191 0.0258 -0.3930
vn -0.0307 0.1037 -0.9941
vn -0.1017 0.5042 -0.8575
vn -0.9136 0.2136 -0.3460
vn -0.9129 -0.0172 -0.4078
vn 0.1303 -0.2344 -0.9633
vn -0.0248 -0.0420 -0.9988
vn -0.9232 0.0472 -0.3815
vn -0.1100 0.2348 -0.9658
vn -0.9337 0.0912 -0.3461
vn -0.0604 -0.1068 -0.9924
vn -0.9372 -0.1121 -0.3303
vn -0.9348 -0.1184 0.3348
vn -0.9572 0.0397 0.2867
vn -0.9229 0.0119 0.3847
vn -0.9313 -0.0298 0.3630
vn -0.9415 -0.0457 0.3338
vn -0.9344 -0.1302 0.3317
vn -0.3986 0.4432 0.8029
vn 0.8461 0.2543 0.4684
vn -0.3070 -0.2051 0.9293
vn -0.3014 -0.0691 0.9510
vn -0.4032 -0.0344 0.9144
vn -0.3282 -0.2980 0.8964
vn -0.2342 -0.2216 0.9466
vn -0.2394 -0.0705 0.9683
vn -0.3504 0.3368 0.8739
vn 0.8967 0.0114 -0.4424
vn 0.0004 -0.0521 -0.9986
vn -0.0577 0.3120 -0.9483
vn -0.4305 0.7875 0.4410
vn -0.2567 0.9346 -0.2463
vn -0.9611 -0.0268 0.2750
vn -0.9823 -0.0190 -0.1864
vn -0.8848 -0.2009 -0.4203
vn -0.9298 -0.0803 0.3592
vn 0.7196 -0.5498 -0.4241
vn -0.0009 -0.7087 -0.7055
vn 0.0044 -0.9996 -0.0258
vn 0.7430 -0.6640 -0.0838
vn 0.6247 -0.5962 0.5043
vn -0.2213 -0.6227 0.7505
vn -0.9640 0.0614 0.2587
vn -0.9073 -0.0427 -0.4182
vn -0.7163 -0.5586 -0.4181
vn -0.7241 -0.6893 0.0216
vn -0.9424 0.3178 0.1037
vn -0.7130 -0.7008 -0.0227
vn -0.7118 -0.6384 0.2927
vn -0.9045 0.2598 0.3380
vn 0.8146 0.5731 0.0891
vn 0.6884 0.4702 0.5523
vn 0.7702 -0.6338 -0.0703
vn -0.2660 0.6467 0.7148
vn -0.2955 0.8780 0.3765
vn 0.0031 -0.9998 -0.0177
vn -0.1541 0.8479 0.5072
vn -0.3588 0.9176 -0.1712
vn -0.4628 0.8082 -0.3642
vn -0.2056 0.6674 0.7157
vn 0.1301 0.8876 -0.4418
vn 0.6024 0.7573 0.2522
vn 0.9947 0.0160 -0.1013
vn 0.2114 0.1762 -0.9614
vn 0.4583 0.5475 0.7001
vn 0.4581 0.0456 0.8877
vn -0.6823 0.6182 -0.3903
vn -0.2653 0.9429 -0.2011
vn -0.5281 0.7340 0.4270
vn -0.7381 0.4494 0.5032
vn -0.3545 0.5669 0.7436
vn 0.2488 -0.3754 0.8928
vn 0.4683 -0.8824 0.0453
vn 0.0213 -0.3933 0.9192
vn -0.4677 0.5806 0.6665
vn -0.3705 0.6866 0.6255
vn 0.0757 -0.2200 0.9725
vn 0.2182 -0.9732 0.0726
vn 0.3621 -0.9321 -0.0003
vn 0.3398 0.0743 0.9375
vn -0.0892 0.7978 0.5963
vn -0.3281 0.6941 0.6408
vn 0.2380 0.0177 0.9711
vn 0.7800 -0.6250 0.0309
vn 0.6571 -0.7426 0.1294
vn -0.1668 -0.3123 -0.9352
vn -0.5795 0.7139 -0.3930
vn -0.2831 -0.2840 -0.9160
vn -0.0722 -0.1178 -0.9904
vn -0.5657 0.7315 -0.3806
vn -0.4240 0.7992 -0.4260
vn 0.1348 -0.0555 -0.9893
vn 0.0296 -0.2137 -0.9764
vn -0.2688 0.8127 -0.5169
vn -0.4834 0.7301 -0.4829
vn -0.4785 0.5181 0.7089
vn -0.6808 0.4728 -0.5593
vn -0.6199 0.6244 -0.4752
vn -0.4258 0.4830 0.7651
vn 0.1017 -0.1573 0.9823
vn 0.3862 -0.9149 0.1175
vn -0.1034 -0.3251 -0.9400
vn 0.1706 -0.1904 0.9667
vn 0.5449 -0.8323 0.1013
vn -0.0305 -0.1695 -0.9850
vn -0.2294 0.6289 0.7429
vn 0.2936 -0.1244 0.9478
vn -0.3704 0.8209 -0.4347
vn 0.2463 0.2180 -0.9443
vn 0.9367 -0.3369 0.0951
vn 0.9118 -0.4052 -0.0670
vn 0.1743 0.1066 -0.9789
vn -0.3303 0.6479 0.6863
vn -0.5088 0.6926 -0.5113
vn -0.9379 -0.0595 -0.3417
vn -0.7563 -0.1073 0.6453
vn 0.3797 -0.0009 0.9251
vn 0.2889 -0.9538 0.0829
vn -0.1329 -0.5837 0.8010
vn -0.3627 -0.5639 -0.7419
usemtl Zombie.001
s 1
f 80/1/1 55/2/2 56/3/3 2/4/4
f 66/5/5 67/6/6 3/7/7 9/8/8
f 23/9/9 24/10/10 45/11/11 44/12/12
f 9/8/8 3/7/7 4/13/13 12/14/14
f 12/14/14 4/13/13 6/15/15 14/16/16
f 64/17/17 68/18/18 17/19/19 10/20/20
f 21/21/21 25/22/22 46/23/23 42/24/24
f 10/20/20 17/19/19 5/25/25 11/26/26
f 11/26/26 5/25/25 7/27/27 13/28/28
f 78/29/29 64/17/17 10/20/20 73/30/30
f 75/31/31 21/21/21 42/24/24 69/32/32
f 73/30/30 10/20/20 11/26/26 70/33/33
f 70/33/33 11/26/26 13/28/28 71/34/34
f 48/35/35 50/36/36 6/15/15 20/37/37
f 20/37/37 6/15/15 4/13/13 19/38/38
f 19/38/38 4/13/13 3/7/7 16/39/39
f 65/40/40 67/6/6 45/11/11 43/41/41
f 22/42/42 24/10/10 2/4/4 18/43/43
f 49/44/44 51/45/45 7/27/27 14/46/16
f 14/46/16 7/27/27 5/25/25 12/47/14
f 12/47/14 5/25/25 17/19/19 9/48/8
f 66/49/5 68/18/18 46/23/23 44/50/12
f 23/51/9 25/22/22 81/52/46 80/53/1
f 57/54/47 18/43/43 2/4/4 56/3/3
f 55/55/2 80/53/1 81/52/46 58/56/48
f 72/57/49 15/58/50 8/59/51 74/60/52
f 80/1/1 2/4/4 24/10/10 23/9/9
f 8/59/51 81/52/46 25/22/22 21/21/21
f 74/60/52 8/59/51 21/21/21 75/31/31
f 43/41/41 45/11/11 24/10/10 22/42/42
f 44/50/12 46/23/23 25/22/22 23/51/9
f 51/45/45 49/44/44 27/61/53 79/62/54
f 39/63/55 36/64/56 34/65/57 35/66/58
f 77/67/59 47/68/60 28/69/61 76/70/62
f 37/71/63 38/72/64 33/73/65 30/74/66
f 47/68/60 51/45/45 79/62/54 28/69/61
f 36/75/56 40/76/67 31/77/68 34/78/57
f 49/79/44 50/36/36 26/80/69 27/81/53
f 31/77/68 32/82/70 35/83/58 34/78/57
f 32/82/70 30/74/66 33/73/65 35/83/58
f 38/84/64 39/63/55 35/66/58 33/85/65
f 40/76/67 41/86/71 32/82/70 31/77/68
f 41/86/71 37/71/63 30/74/66 32/82/70
f 29/87/72 26/88/69 36/64/56 39/63/55
f 26/80/69 50/36/36 40/76/67 36/75/56
f 50/36/36 48/35/35 41/86/71 40/76/67
f 14/16/16 6/15/15 50/36/36 49/79/44
f 13/28/28 7/27/27 51/45/45 47/68/60
f 71/34/34 13/28/28 47/68/60 77/67/59
f 52/89/73 54/90/74 103/91/75 105/92/76
f 53/93/77 59/94/78 106/95/79 104/96/80
f 59/97/78 1/98/81 117/99/82 106/100/79
f 1/98/81 52/89/73 105/92/76 117/99/82
f 81/52/46 62/101/83 61/102/84 58/56/48
f 18/43/43 57/54/47 60/103/85 63/104/86
f 81/52/46 8/59/51 15/58/50 62/101/83
f 44/12/12 45/11/11 67/6/6 66/5/5
f 42/24/24 46/23/23 68/18/18 64/17/17
f 69/32/32 42/24/24 64/17/17 78/29/29
f 16/39/39 3/7/7 67/6/6 65/40/40
f 9/48/8 17/19/19 68/18/18 66/49/5
f 65/40/40 78/105/29 73/106/30 16/39/39
f 22/42/42 75/107/31 69/108/32 43/41/41
f 16/39/39 73/106/30 70/109/33 19/38/38
f 19/38/38 70/109/33 71/110/34 20/37/37
f 18/43/43 74/111/52 75/107/31 22/42/42
f 77/112/59 76/113/62 38/72/64 37/71/63
f 76/114/62 29/87/72 39/63/55 38/84/64
f 48/35/35 77/112/59 37/71/63 41/86/71
f 20/37/37 71/110/34 77/112/59 48/35/35
f 18/43/43 63/104/86 72/115/49 74/111/52
f 43/41/41 69/108/32 78/105/29 65/40/40
f 27/116/53 26/88/69 29/87/72 79/117/54
f 79/117/54 29/87/72 76/114/62 28/118/61
f 54/119/74 53/93/77 104/96/80 103/120/75
f 117/99/82 105/92/76 109/121/87 115/122/88
f 106/100/79 117/99/82 115/122/88 110/123/89
f 90/124/90 84/125/91 82/126/92 85/127/93
f 95/128/94 90/124/90 85/127/93 92/129/95
f 118/130/96 113/131/97 83/132/98 88/133/99
f 114/134/100 118/130/96 88/133/99 93/135/101
f 115/122/88 109/121/87 84/125/91 90/124/90
f 110/123/89 115/122/88 90/124/90 95/128/94
f 104/96/80 106/95/79 110/136/89 108/137/102
f 105/92/76 103/91/75 107/138/103 109/121/87
f 89/139/104 95/140/94 92/141/95 86/142/105
f 84/125/91 96/143/106 91/144/107 82/126/92
f 112/145/108 114/146/100 93/147/101 87/148/109
f 113/131/97 111/149/110 94/150/111 83/132/98
f 108/137/102 110/136/89 95/140/94 89/139/104
f 109/121/87 107/138/103 96/143/106 84/125/91
f 98/151/112 99/152/113 101/153/114 119/154/115
f 88/133/99 83/132/98 98/151/112 116/155/116
f 93/135/101 88/133/99 116/155/116 100/156/117
f 87/148/109 93/147/101 100/157/117 97/158/118
f 83/132/98 94/150/111 99/152/113 98/151/112
f 116/155/116 98/151/112 119/154/115 102/159/119
f 100/156/117 116/155/116 102/159/119 121/160/120
f 97/158/118 100/157/117 121/161/120 120/162/121
f 85/127/93 82/126/92 113/131/97 118/130/96
f 92/129/95 85/127/93 118/130/96 114/134/100
f 86/142/105 92/141/95 114/146/100 112/145/108
f 82/126/92 91/144/107 111/149/110 113/131/97
f 91/163/107 86/142/105 112/145/108 111/164/110
f 99/165/113 97/158/118 120/162/121 101/166/114
f 94/167/111 87/148/109 97/158/118 99/165/113
f 107/168/103 108/137/102 89/139/104 96/169/106
f 111/164/110 112/145/108 87/148/109 94/167/111
f 96/169/106 89/139/104 86/142/105 91/163/107
f 103/120/75 104/96/80 108/137/102 107/168/103
f 102/159/119 119/154/115 123/170/122 122/171/123
f 119/154/115 101/153/114 125/172/124 123/170/122
f 101/166/114 120/162/121 124/173/125 125/174/124
f 121/160/120 102/159/119 122/171/123 126/175/126
f 120/162/121 121/161/120 126/176/126 124/173/125
f 124/173/125 126/176/126 131/177/127 130/178/128
f 129/179/129 127/180/130 132/181/131 134/182/132
f 122/171/123 123/170/122 129/179/129 128/183/133
f 123/170/122 125/172/124 127/180/130 129/179/129
f 125/174/124 124/173/125 130/178/128 127/184/130
f 126/175/126 122/171/123 128/183/133 131/185/127
f 136/186/134 133/187/135 134/188/132 132/189/131 135/190/136
f 127/184/130 130/178/128 135/190/136 132/189/131
f 131/185/127 128/183/133 133/191/135 136/192/134
f 130/178/128 131/177/127 136/186/134 135/190/136
f 128/183/133 129/179/129 134/182/132 133/191/135
